<?xml version="1.0" encoding="UTF-8" standalone="no"?>
<svg
   xmlns:dc="http://purl.org/dc/elements/1.1/"
   xmlns:cc="http://creativecommons.org/ns#"
   xmlns:rdf="http://www.w3.org/1999/02/22-rdf-syntax-ns#"
   xmlns:svg="http://www.w3.org/2000/svg"
   xmlns="http://www.w3.org/2000/svg"
   xmlns:sodipodi="http://sodipodi.sourceforge.net/DTD/sodipodi-0.dtd"
   xmlns:inkscape="http://www.inkscape.org/namespaces/inkscape"
   width="24"
   height="24"
   viewBox="0 0 24 24"
   version="1.1"
   id="svg6"
   sodipodi:docname="icon_old.svg"
   inkscape:version="0.92.4 5da689c313, 2019-01-14">
  <metadata
     id="metadata12">
    <rdf:RDF>
      <cc:Work
         rdf:about="">
        <dc:format>image/svg+xml</dc:format>
        <dc:type
           rdf:resource="http://purl.org/dc/dcmitype/StillImage" />
        <dc:title />
      </cc:Work>
    </rdf:RDF>
  </metadata>
  <defs
     id="defs10" />
  <sodipodi:namedview
     pagecolor="#ffffff"
     bordercolor="#666666"
     borderopacity="1"
     objecttolerance="10"
     gridtolerance="10"
     guidetolerance="10"
     inkscape:pageopacity="0"
     inkscape:pageshadow="2"
     inkscape:window-width="1910"
     inkscape:window-height="1021"
     id="namedview8"
     showgrid="false"
     inkscape:zoom="35.666667"
     inkscape:cx="12"
     inkscape:cy="12"
     inkscape:window-x="5"
     inkscape:window-y="30"
     inkscape:window-maximized="1"
     inkscape:current-layer="svg6"
     inkscape:snap-global="false"
     showguides="true"
     inkscape:guide-bbox="true">
    <sodipodi:guide
       position="0,1.7095026"
       orientation="1,0"
       id="guide853"
       inkscape:locked="false"
       inkscape:label=""
       inkscape:color="rgb(0,0,255)" />
    <sodipodi:guide
       position="-25.927456,0"
       orientation="0,1"
       id="guide855"
       inkscape:locked="false"
       inkscape:label=""
       inkscape:color="rgb(0,0,255)" />
    <sodipodi:guide
       position="20,-7.5503033"
       orientation="1,0"
       id="guide934"
       inkscape:locked="false"
       inkscape:label=""
       inkscape:color="rgb(0,0,255)" />
    <sodipodi:guide
       position="-47.153781,4"
       orientation="0,1"
       id="guide936"
       inkscape:locked="false"
       inkscape:label=""
       inkscape:color="rgb(0,0,255)" />
    <sodipodi:guide
       position="4,31.625799"
       orientation="1,0"
       id="guide938"
       inkscape:locked="false"
       inkscape:label=""
       inkscape:color="rgb(0,0,255)" />
    <sodipodi:guide
       position="11.790204,20"
       orientation="0,1"
       id="guide1005"
       inkscape:locked="false"
       inkscape:label=""
       inkscape:color="rgb(0,0,255)" />
  </sodipodi:namedview>
  <path
     id="path1002"
     style="font-style:normal;font-weight:normal;font-size:16.51647186px;line-height:1.25;font-family:sans-serif;letter-spacing:0px;word-spacing:0px;fill:#66ccff;fill-opacity:1;stroke:#808080;stroke-width:0.80000001;stroke-miterlimit:4;stroke-dasharray:none;paint-order:markers stroke fill"
     d="m 4.7286009,13.154801 v 6.688964 h 1.6334247 v -4.588573 l 2.4306696,4.588573 H 10.719061 V 13.154801 H 9.0837822 v 4.588574 L 6.6531127,13.154801 Z M 15.18635,6.7849832 v 8.1232428 l -1.920804,-1.922266 -0.986359,0.985253 3.235331,3.237794 h 0.737916 l 3.218643,-3.237794 -0.984505,-0.985253 -1.905971,1.922266 V 6.7849832 Z M 7.7229039,5.4457528 c 0.5282838,10e-8 0.9378755,0.1943174 1.2273861,0.5826172 0.2895112,0.3883005 0.4338495,0.933465 0.4338495,1.6383789 0,0.7019278 -0.1443383,1.2482236 -0.4338495,1.6365238 C 8.6607794,9.6915729 8.2511877,9.8858894 7.7229039,9.8858894 7.1976042,9.8858894 6.7905919,9.6915729 6.50108,9.3032727 6.2115692,8.9149725 6.0672305,8.3686767 6.0672305,7.6667489 6.0672304,6.961835 6.2115692,6.4166705 6.50108,6.02837 6.7905919,5.6400702 7.1976042,5.4457528 7.7229039,5.4457528 Z m 0,-1.2505858 c -1.0714907,0 -1.9133721,0.3068618 -2.5252264,0.922168 -0.6088703,0.6153067 -0.9121964,1.4651605 -0.9121964,2.5494139 0,1.0812672 0.3033261,1.9303966 0.9121964,2.5457041 0.6118542,0.615306 1.4537357,0.922168 2.5252264,0.922168 1.0744747,0 1.9163573,-0.306862 2.5252261,-0.922168 C 10.857,9.5971455 11.16218,8.7480161 11.16218,7.6667489 11.16218,6.5824955 10.857,5.7326417 10.24813,5.117335 9.6392611,4.5020288 8.7973785,4.195167 7.7229039,4.195167 Z" />
</svg>
