<?xml version="1.0" encoding="UTF-8" standalone="no"?>
<!-- Created with Inkscape (http://www.inkscape.org/) -->

<svg
   xmlns:dc="http://purl.org/dc/elements/1.1/"
   xmlns:cc="http://creativecommons.org/ns#"
   xmlns:rdf="http://www.w3.org/1999/02/22-rdf-syntax-ns#"
   xmlns:svg="http://www.w3.org/2000/svg"
   xmlns="http://www.w3.org/2000/svg"
   xmlns:sodipodi="http://sodipodi.sourceforge.net/DTD/sodipodi-0.dtd"
   xmlns:inkscape="http://www.inkscape.org/namespaces/inkscape"
   width="48"
   height="48"
   viewBox="0 0 12.7 12.7"
   version="1.1"
   id="svg8"
   inkscape:version="0.92.4 5da689c313, 2019-01-14"
   sodipodi:docname="icon.svg">
  <defs
     id="defs2" />
  <sodipodi:namedview
     id="base"
     pagecolor="#ffffff"
     bordercolor="#666666"
     borderopacity="1.0"
     inkscape:pageopacity="0.0"
     inkscape:pageshadow="2"
     inkscape:zoom="16.39241"
     inkscape:cx="23.9754"
     inkscape:cy="23.982942"
     inkscape:document-units="mm"
     inkscape:current-layer="layer1"
     showgrid="false"
     units="px"
     inkscape:window-width="1920"
     inkscape:window-height="1057"
     inkscape:window-x="1920"
     inkscape:window-y="0"
     inkscape:window-maximized="1" />
  <metadata
     id="metadata5">
    <rdf:RDF>
      <cc:Work
         rdf:about="">
        <dc:format>image/svg+xml</dc:format>
        <dc:type
           rdf:resource="http://purl.org/dc/dcmitype/StillImage" />
        <dc:title></dc:title>
      </cc:Work>
    </rdf:RDF>
  </metadata>
  <g
     inkscape:label="Layer 1"
     inkscape:groupmode="layer"
     id="layer1"
     transform="translate(0,-284.29998)">
    <g
       id="g1103"
       transform="matrix(0.90909086,0,0,0.90909086,0.53257261,26.307443)">
      <path
         inkscape:connector-curvature="0"
         id="rect4709-5"
         d="m 1.1937187,286.61854 c -0.36423497,0 -0.61538197,0.25669 -0.61538197,0.56524 v 7.18773 c 0,0.30856 0.251147,0.56358 0.61538197,0.56358 H 11.60421 c 0.364235,0 0.615794,-0.25502 0.615794,-0.56358 v -7.18773 c 0,-0.30855 -0.251559,-0.56524 -0.615794,-0.56524 z"
         style="fill:#87cdde;stroke:none;stroke-width:1.41111112;stroke-miterlimit:4;stroke-dasharray:none" />
      <path
         inkscape:connector-curvature="0"
         id="rect4683-3"
         d="m 2.3299947,289.7286 -1.75165797,2.68861 v 1.9543 c 0,0.30856 0.251147,0.56358 0.61538197,0.56358 H 11.60421 c 0.364235,0 0.615794,-0.25502 0.615794,-0.56358 v -1.70194 l -1.183932,-1.91782 -2.1743453,2.97578 -2.569678,-1.38615 -1.615321,0.56855 z"
         style="fill:#37abc8;stroke:none;stroke-width:1.41111112;stroke-miterlimit:4;stroke-dasharray:none" />
      <path
         inkscape:connector-curvature="0"
         id="text4527-5"
         d="m 5.8105197,287.40631 -3.137818,7.52878 h 1.620709 l 0.714421,-1.66464 h 2.814587 l 0.688313,1.66464 h 1.6136653 l -3.1581223,-7.52878 z m 0.57767,2.06536 0.84537,2.39729 h -1.690741 z"
         style="font-style:normal;font-weight:normal;font-size:13.34438229px;line-height:1.25;font-family:sans-serif;letter-spacing:0px;word-spacing:0px;fill:#ffffff;fill-opacity:1;stroke:none;stroke-width:0.33360955" />
      <circle
         r="1.1252092"
         cy="288.83118"
         cx="10.272206"
         id="path4529-2"
         style="fill:#ffdd55;stroke:none;stroke-width:1.05833328;stroke-miterlimit:4;stroke-dasharray:none" />
    </g>
  </g>
</svg>
