<?xml version="1.0" encoding="UTF-8" standalone="no"?>
<svg
   xmlns:dc="http://purl.org/dc/elements/1.1/"
   xmlns:cc="http://creativecommons.org/ns#"
   xmlns:rdf="http://www.w3.org/1999/02/22-rdf-syntax-ns#"
   xmlns:svg="http://www.w3.org/2000/svg"
   xmlns="http://www.w3.org/2000/svg"
   xmlns:sodipodi="http://sodipodi.sourceforge.net/DTD/sodipodi-0.dtd"
   xmlns:inkscape="http://www.inkscape.org/namespaces/inkscape"
   width="24"
   height="24"
   viewBox="0 0 24 24"
   version="1.1"
   id="svg6"
   sodipodi:docname="icon_refresh.svg"
   inkscape:version="0.92.4 5da689c313, 2019-01-14">
  <metadata
     id="metadata12">
    <rdf:RDF>
      <cc:Work
         rdf:about="">
        <dc:format>image/svg+xml</dc:format>
        <dc:type
           rdf:resource="http://purl.org/dc/dcmitype/StillImage" />
        <dc:title></dc:title>
      </cc:Work>
    </rdf:RDF>
  </metadata>
  <defs
     id="defs10" />
  <sodipodi:namedview
     pagecolor="#ffffff"
     bordercolor="#666666"
     borderopacity="1"
     objecttolerance="10"
     gridtolerance="10"
     guidetolerance="10"
     inkscape:pageopacity="0"
     inkscape:pageshadow="2"
     inkscape:window-width="1900"
     inkscape:window-height="1036"
     id="namedview8"
     showgrid="false"
     inkscape:zoom="31.642714"
     inkscape:cx="8.3507253"
     inkscape:cy="12.087265"
     inkscape:window-x="1930"
     inkscape:window-y="34"
     inkscape:window-maximized="1"
     inkscape:current-layer="svg6" />
  <path
     d="M 0,0 H 24 V 24 H 0 Z"
     id="path2"
     inkscape:connector-curvature="0"
     style="fill:none;stroke-width:0.5" />
  <path
     inkscape:connector-curvature="0"
     d="M 19.060663,4.933083 C 17.253283,3.11945 14.757974,1.993746 11.993746,1.993746 6.4652908,1.993746 2,6.471545 2,12 c 0,5.528455 4.4652908,10.006254 9.993746,10.006254 4.659162,0 8.561601,-3.189493 9.668543,-7.50469 h -2.601626 c -1.031895,2.914321 -3.796123,5.003127 -7.066917,5.003127 -4.1463414,0 -7.5046904,-3.358349 -7.5046904,-7.504691 0,-4.146341 3.358349,-7.50469 7.5046904,-7.50469 2.070044,0 3.927455,0.863039 5.284553,2.220137 l -4.033771,4.033771 H 22 V 1.993746 Z"
     id="path2-5"
     style="stroke-width:0.62539089;fill:#4d4d4d;fill-opacity:1" />
</svg>
