<?xml version="1.0" encoding="UTF-8" standalone="no"?>
<svg
   xmlns:dc="http://purl.org/dc/elements/1.1/"
   xmlns:cc="http://creativecommons.org/ns#"
   xmlns:rdf="http://www.w3.org/1999/02/22-rdf-syntax-ns#"
   xmlns:svg="http://www.w3.org/2000/svg"
   xmlns="http://www.w3.org/2000/svg"
   xmlns:sodipodi="http://sodipodi.sourceforge.net/DTD/sodipodi-0.dtd"
   xmlns:inkscape="http://www.inkscape.org/namespaces/inkscape"
   width="24"
   height="24"
   viewBox="0 0 24 24"
   version="1.1"
   id="svg6"
   sodipodi:docname="icon_new.svg"
   inkscape:version="0.92.4 5da689c313, 2019-01-14">
  <metadata
     id="metadata12">
    <rdf:RDF>
      <cc:Work
         rdf:about="">
        <dc:format>image/svg+xml</dc:format>
        <dc:type
           rdf:resource="http://purl.org/dc/dcmitype/StillImage" />
        <dc:title />
      </cc:Work>
    </rdf:RDF>
  </metadata>
  <defs
     id="defs10" />
  <sodipodi:namedview
     pagecolor="#ffffff"
     bordercolor="#666666"
     borderopacity="1"
     objecttolerance="10"
     gridtolerance="10"
     guidetolerance="10"
     inkscape:pageopacity="0"
     inkscape:pageshadow="2"
     inkscape:window-width="1910"
     inkscape:window-height="1021"
     id="namedview8"
     showgrid="false"
     inkscape:zoom="35.666667"
     inkscape:cx="7.3457944"
     inkscape:cy="12"
     inkscape:window-x="5"
     inkscape:window-y="30"
     inkscape:window-maximized="1"
     inkscape:current-layer="svg6"
     inkscape:snap-global="false"
     showguides="true"
     inkscape:guide-bbox="true">
    <sodipodi:guide
       position="0,1.7095026"
       orientation="1,0"
       id="guide853"
       inkscape:locked="false"
       inkscape:label=""
       inkscape:color="rgb(0,0,255)" />
    <sodipodi:guide
       position="-25.927456,0"
       orientation="0,1"
       id="guide855"
       inkscape:locked="false"
       inkscape:label=""
       inkscape:color="rgb(0,0,255)" />
    <sodipodi:guide
       position="20,-7.5503033"
       orientation="1,0"
       id="guide934"
       inkscape:locked="false"
       inkscape:label=""
       inkscape:color="rgb(0,0,255)" />
    <sodipodi:guide
       position="-47.153781,4"
       orientation="0,1"
       id="guide936"
       inkscape:locked="false"
       inkscape:label=""
       inkscape:color="rgb(0,0,255)" />
    <sodipodi:guide
       position="4,31.625799"
       orientation="1,0"
       id="guide938"
       inkscape:locked="false"
       inkscape:label=""
       inkscape:color="rgb(0,0,255)" />
    <sodipodi:guide
       position="11.790204,20"
       orientation="0,1"
       id="guide1005"
       inkscape:locked="false"
       inkscape:label=""
       inkscape:color="rgb(0,0,255)" />
  </sodipodi:namedview>
  <path
     id="path1002"
     style="font-style:normal;font-weight:normal;font-size:16.51647186px;line-height:1.25;font-family:sans-serif;letter-spacing:0px;word-spacing:0px;fill:#66cbff;fill-opacity:1;stroke:#808080;stroke-width:0.80000001;stroke-miterlimit:4;stroke-dasharray:none;paint-order:markers stroke fill"
     d="M 4.7106588,4.1353307 V 10.861663 H 6.353496 V 6.2474555 L 8.7981721,10.861663 H 10.735638 V 4.1353307 H 9.0909365 V 8.7495391 L 6.6462603,4.1353307 Z M 15.310844,6.7104816 v 8.1686214 l -1.931873,-1.933003 -0.992042,0.990758 3.253973,3.255882 h 0.742167 L 19.620261,13.936858 18.630084,12.9461 16.71313,14.879103 V 6.7104816 Z M 7.6941789,12.890623 c -1.0776651,1e-6 -1.9243979,0.308577 -2.539778,0.92732 -0.6123789,0.618746 -0.9174528,1.473346 -0.9174528,2.563657 0,1.087308 0.3050739,1.941182 0.9174528,2.559926 0.6153801,0.618744 1.4621129,0.927319 2.539778,0.927319 1.0806662,0 1.9273998,-0.308575 2.5397791,-0.927319 0.612377,-0.618744 0.919316,-1.472618 0.919316,-2.559926 0,-1.09031 -0.306939,-1.944911 -0.919316,-2.563657 C 9.6215787,13.1992 8.7748451,12.890623 7.6941789,12.890623 Z m 0,1.255709 c 0.5313278,0 0.9432798,0.1954 1.2344588,0.585871 0.2911792,0.390469 0.4363493,0.940546 0.4363493,1.649397 0,0.70585 -0.1451701,1.253331 -0.4363493,1.643799 -0.291179,0.390471 -0.703131,0.585874 -1.2344588,0.585874 -0.5283269,0 -0.9376846,-0.195403 -1.2288647,-0.585874 C 6.1741351,17.634931 6.0289646,17.08745 6.0289648,16.3816 c -2e-7,-0.708851 0.1451703,-1.258928 0.4363494,-1.649397 0.2911801,-0.39047 0.7005378,-0.585871 1.2288647,-0.585871 z" />
</svg>
