<?xml version="1.0" encoding="UTF-8" standalone="no"?>
<svg
   xmlns:dc="http://purl.org/dc/elements/1.1/"
   xmlns:cc="http://creativecommons.org/ns#"
   xmlns:rdf="http://www.w3.org/1999/02/22-rdf-syntax-ns#"
   xmlns:svg="http://www.w3.org/2000/svg"
   xmlns="http://www.w3.org/2000/svg"
   xmlns:sodipodi="http://sodipodi.sourceforge.net/DTD/sodipodi-0.dtd"
   xmlns:inkscape="http://www.inkscape.org/namespaces/inkscape"
   width="24"
   height="24"
   viewBox="0 0 24 24"
   version="1.1"
   id="svg6"
   sodipodi:docname="icon_feh.svg"
   inkscape:version="0.92.4 5da689c313, 2019-01-14">
  <metadata
     id="metadata12">
    <rdf:RDF>
      <cc:Work
         rdf:about="">
        <dc:format>image/svg+xml</dc:format>
        <dc:type
           rdf:resource="http://purl.org/dc/dcmitype/StillImage" />
        <dc:title></dc:title>
      </cc:Work>
    </rdf:RDF>
  </metadata>
  <defs
     id="defs10" />
  <sodipodi:namedview
     pagecolor="#ffffff"
     bordercolor="#666666"
     borderopacity="1"
     objecttolerance="10"
     gridtolerance="10"
     guidetolerance="10"
     inkscape:pageopacity="0"
     inkscape:pageshadow="2"
     inkscape:window-width="1890"
     inkscape:window-height="1002"
     id="namedview8"
     showgrid="false"
     inkscape:zoom="24.071454"
     inkscape:cx="11.610372"
     inkscape:cy="10.898079"
     inkscape:window-x="14"
     inkscape:window-y="38"
     inkscape:window-maximized="0"
     inkscape:current-layer="svg6"
     inkscape:snap-global="false"
     showguides="true"
     inkscape:guide-bbox="true">
    <sodipodi:guide
       position="0,1.7095026"
       orientation="1,0"
       id="guide853"
       inkscape:locked="false"
       inkscape:label=""
       inkscape:color="rgb(0,0,255)" />
    <sodipodi:guide
       position="-25.927456,0"
       orientation="0,1"
       id="guide855"
       inkscape:locked="false"
       inkscape:label=""
       inkscape:color="rgb(0,0,255)" />
  </sodipodi:namedview>
  <path
     style="font-style:normal;font-variant:normal;font-weight:normal;font-stretch:normal;font-size:21.31747246px;line-height:1.25;font-family:Ionicons;-inkscape-font-specification:Ionicons;letter-spacing:0px;word-spacing:0px;fill:#333333;fill-opacity:1;stroke:none;stroke-width:0.53293681"
     d="m 20.411277,7.1702609 q 0.416356,0.041636 0.666171,0.3330855 0.291449,0.2914498 0.249814,0.666171 l -0.5829,10.9501856 q -0.04164,0.416357 -0.333085,0.666171 -0.29145,0.249815 -0.707807,0.208179 L 5.9636927,19.327882 Q 5.5473358,19.286246 5.255886,19.036432 5.0060718,18.786618 5.0477075,18.370261 l 0.083271,-1.915242 -0.6245353,0.04164 Q 4.1317224,16.538291 3.8402726,16.330112 3.5904584,16.080298 3.5488227,15.747213 L 2.6744733,5.9211902 Q 2.6328376,5.5881047 2.841016,5.3382906 3.0908302,5.0468408 3.4655514,5.0052051 L 15.789715,4.0059485 q 0.374721,-0.041636 0.624535,0.2081785 0.29145,0.2081784 0.333086,0.5412639 l 0.208178,2.2483272 z"
     id="path2289" />
  <path
     style="font-style:normal;font-variant:normal;font-weight:normal;font-stretch:normal;font-size:21.31747246px;line-height:1.25;font-family:Ionicons;-inkscape-font-specification:Ionicons;letter-spacing:0px;word-spacing:0px;fill:#cccccc;fill-opacity:1;stroke:none;stroke-width:0.53293681"
     d="M 5.6306072,7.420075 Q 5.6722429,7.0453538 5.922057,6.7955397 6.2135068,6.5040898 6.6298637,6.5040898 l 9.1182153,0.4579926 -0.08327,-1.2907063 h -0.04164 V 5.6297404 Q 15.539901,5.2966549 15.206815,5.2966549 L 4.3399008,6.21264 q -0.3330855,0 -0.4163569,0.3747212 v 0.041636 L 4.589715,14.040149 5.3391573,12.999257 Z"
     id="path2287" />
  <path
     style="font-style:normal;font-variant:normal;font-weight:normal;font-stretch:normal;font-size:21.31747246px;line-height:1.25;font-family:Ionicons;-inkscape-font-specification:Ionicons;letter-spacing:0px;word-spacing:0px;fill:#cccccc;fill-opacity:1;stroke:none;stroke-width:0.53293681"
     d="m 19.536927,17.246097 0.416357,-8.2855015 h -0.04164 q 0,-0.4163569 -0.416357,-0.4163569 L 7.3793061,7.9613389 q -0.4163569,0 -0.4996283,0.3747212 l -0.4163569,8.2855019 5.0795541,-5.454275 2.872862,3.372491 1.582157,-1.415614 z"
     id="path2285" />
  <path
     style="font-style:normal;font-variant:normal;font-weight:normal;font-stretch:normal;font-size:21.31747246px;line-height:1.25;font-family:Ionicons;-inkscape-font-specification:Ionicons;letter-spacing:0px;word-spacing:0px;fill:#333333;fill-opacity:1;stroke:none;stroke-width:0.53293681"
     d="m 18.287856,11.62528 q -0.374721,0.374721 -0.95762,0.374721 -0.5829,0 -0.957621,-0.374721 -0.374721,-0.374722 -0.374721,-0.957621 0,-0.5829 0.374721,-0.9576211 0.374721,-0.3747212 0.957621,-0.3747212 0.582899,0 0.95762,0.3747212 0.374722,0.3747211 0.374722,0.9576211 0,0.582899 -0.374722,0.957621 z"
     id="path999" />
</svg>
