<?xml version="1.0" encoding="UTF-8" standalone="no"?>
<svg
   xmlns:dc="http://purl.org/dc/elements/1.1/"
   xmlns:cc="http://creativecommons.org/ns#"
   xmlns:rdf="http://www.w3.org/1999/02/22-rdf-syntax-ns#"
   xmlns:svg="http://www.w3.org/2000/svg"
   xmlns="http://www.w3.org/2000/svg"
   xmlns:sodipodi="http://sodipodi.sourceforge.net/DTD/sodipodi-0.dtd"
   xmlns:inkscape="http://www.inkscape.org/namespaces/inkscape"
   width="24"
   height="24"
   viewBox="0 0 24 24"
   version="1.1"
   id="svg6"
   sodipodi:docname="icon_new.svg"
   inkscape:version="0.92.4 5da689c313, 2019-01-14">
  <metadata
     id="metadata12">
    <rdf:RDF>
      <cc:Work
         rdf:about="">
        <dc:format>image/svg+xml</dc:format>
        <dc:type
           rdf:resource="http://purl.org/dc/dcmitype/StillImage" />
        <dc:title></dc:title>
      </cc:Work>
    </rdf:RDF>
  </metadata>
  <defs
     id="defs10" />
  <sodipodi:namedview
     pagecolor="#ffffff"
     bordercolor="#666666"
     borderopacity="1"
     objecttolerance="10"
     gridtolerance="10"
     guidetolerance="10"
     inkscape:pageopacity="0"
     inkscape:pageshadow="2"
     inkscape:window-width="1890"
     inkscape:window-height="1002"
     id="namedview8"
     showgrid="false"
     inkscape:zoom="17.132868"
     inkscape:cx="11.023019"
     inkscape:cy="6.6982471"
     inkscape:window-x="14"
     inkscape:window-y="38"
     inkscape:window-maximized="0"
     inkscape:current-layer="svg6"
     inkscape:snap-global="false"
     showguides="true"
     inkscape:guide-bbox="true">
    <sodipodi:guide
       position="0,1.7095026"
       orientation="1,0"
       id="guide853"
       inkscape:locked="false"
       inkscape:label=""
       inkscape:color="rgb(0,0,255)" />
    <sodipodi:guide
       position="-25.927456,0"
       orientation="0,1"
       id="guide855"
       inkscape:locked="false"
       inkscape:label=""
       inkscape:color="rgb(0,0,255)" />
    <sodipodi:guide
       position="20,-7.5503033"
       orientation="1,0"
       id="guide934"
       inkscape:locked="false"
       inkscape:label=""
       inkscape:color="rgb(0,0,255)" />
    <sodipodi:guide
       position="-47.153781,4"
       orientation="0,1"
       id="guide936"
       inkscape:locked="false"
       inkscape:label=""
       inkscape:color="rgb(0,0,255)" />
    <sodipodi:guide
       position="4,31.625799"
       orientation="1,0"
       id="guide938"
       inkscape:locked="false"
       inkscape:label=""
       inkscape:color="rgb(0,0,255)" />
    <sodipodi:guide
       position="11.790204,20"
       orientation="0,1"
       id="guide1005"
       inkscape:locked="false"
       inkscape:label=""
       inkscape:color="rgb(0,0,255)" />
  </sodipodi:namedview>
  <path
     style="font-style:normal;font-weight:normal;font-size:16.51647186px;line-height:1.25;font-family:sans-serif;letter-spacing:0px;word-spacing:0px;fill:#cccccc;fill-opacity:1;stroke:#333333;stroke-width:0.80000001;stroke-miterlimit:4;stroke-dasharray:none;paint-order:markers stroke fill"
     d="M 4.9249399,4.5081633 V 11.197128 H 6.5586501 V 6.6085539 L 8.9897446,11.197128 H 10.916447 V 4.5081633 H 9.2808825 V 9.0967375 L 6.849788,4.5081633 Z M 15.04801,6.9017179 v 8.1232411 l -1.92114,-1.922265 -0.986531,0.985254 3.235896,3.237794 h 0.738044 l 3.219207,-3.237794 -0.984677,-0.985254 -1.906304,1.922265 V 6.9017179 Z M 7.9197664,12.768709 c -1.0716781,1e-6 -1.9137067,0.306863 -2.525668,0.922169 -0.6089768,0.615307 -0.9123558,1.46516 -0.9123558,2.549414 0,1.081267 0.303379,1.930397 0.9123558,2.545703 0.6119613,0.615307 1.4539899,0.922168 2.525668,0.922168 1.0746624,0 1.9166924,-0.306861 2.5256686,-0.922168 0.608975,-0.615306 0.914209,-1.464436 0.914209,-2.545703 0,-1.084253 -0.305234,-1.934107 -0.914209,-2.549414 C 9.8364587,13.075572 8.9944288,12.768709 7.9197664,12.768709 Z m 0,1.248732 c 0.528376,0 0.9380393,0.194316 1.2276006,0.582617 0.2895618,0.3883 0.4339254,0.93532 0.4339254,1.640234 0,0.701928 -0.1443636,1.246368 -0.4339254,1.634667 -0.2895613,0.388301 -0.6992246,0.582618 -1.2276006,0.582618 -0.5253917,0 -0.9324751,-0.194316 -1.2220376,-0.582618 C 6.4081674,17.48666 6.2638034,16.94222 6.2638035,16.240292 c -1e-7,-0.704914 0.1443639,-1.251934 0.4339253,-1.640234 0.2895625,-0.3883 0.6966459,-0.582617 1.2220376,-0.582617 z"
     id="path1002"
     inkscape:connector-curvature="0" />
</svg>
