<?xml version="1.0" encoding="UTF-8" standalone="no"?>
<svg
   xmlns:dc="http://purl.org/dc/elements/1.1/"
   xmlns:cc="http://creativecommons.org/ns#"
   xmlns:rdf="http://www.w3.org/1999/02/22-rdf-syntax-ns#"
   xmlns:svg="http://www.w3.org/2000/svg"
   xmlns="http://www.w3.org/2000/svg"
   xmlns:sodipodi="http://sodipodi.sourceforge.net/DTD/sodipodi-0.dtd"
   xmlns:inkscape="http://www.inkscape.org/namespaces/inkscape"
   width="24"
   height="24"
   viewBox="0 0 24 24"
   version="1.1"
   id="svg6"
   sodipodi:docname="icon_picker.svg"
   inkscape:version="0.92.4 5da689c313, 2019-01-14">
  <metadata
     id="metadata12">
    <rdf:RDF>
      <cc:Work
         rdf:about="">
        <dc:format>image/svg+xml</dc:format>
        <dc:type
           rdf:resource="http://purl.org/dc/dcmitype/StillImage" />
        <dc:title></dc:title>
      </cc:Work>
    </rdf:RDF>
  </metadata>
  <defs
     id="defs10" />
  <sodipodi:namedview
     pagecolor="#ffffff"
     bordercolor="#666666"
     borderopacity="1"
     objecttolerance="10"
     gridtolerance="10"
     guidetolerance="10"
     inkscape:pageopacity="0"
     inkscape:pageshadow="2"
     inkscape:window-width="1910"
     inkscape:window-height="1045"
     id="namedview8"
     showgrid="false"
     inkscape:zoom="15.189114"
     inkscape:cx="25.218786"
     inkscape:cy="4.1053837"
     inkscape:window-x="1925"
     inkscape:window-y="30"
     inkscape:window-maximized="1"
     inkscape:current-layer="svg6"
     inkscape:snap-global="false"
     showguides="true"
     inkscape:guide-bbox="true">
    <sodipodi:guide
       position="0,1.7095026"
       orientation="1,0"
       id="guide853"
       inkscape:locked="false"
       inkscape:label=""
       inkscape:color="rgb(0,0,255)" />
    <sodipodi:guide
       position="-25.927456,0"
       orientation="0,1"
       id="guide855"
       inkscape:locked="false"
       inkscape:label=""
       inkscape:color="rgb(0,0,255)" />
  </sodipodi:namedview>
  <path
     style="fill:#66ccff;fill-opacity:1;stroke:#808080;stroke-width:0.839;stroke-miterlimit:4;stroke-dasharray:none"
     d="m 16.961056,4.5463914 c -0.162443,0.007 -0.323569,0.029036 -0.433699,0.066913 -0.313533,0.1078363 -0.420968,0.1979921 -1.216834,0.9888329 L 14.552169,6.3555337 14.227516,6.0308794 C 13.861422,5.6633725 13.739803,5.5877741 13.486511,5.5674416 c -0.32735,-0.026276 -0.610784,0.1321096 -0.76083,0.4262637 -0.07693,0.1507733 -0.08691,0.192332 -0.08675,0.3593501 3.11e-4,0.3648867 -0.08715,0.2613264 1.908273,2.2552319 1.198806,1.1978964 1.804771,1.7860297 1.876056,1.8215327 0.05789,0.02884 0.146783,0.06389 0.198262,0.07683 0.144427,0.03628 0.36135,0.01131 0.510525,-0.05699 C 17.29611,10.3746 17.426153,10.247096 17.51618,10.07544 17.57462,9.9639683 17.58275,9.917551 17.58309,9.7359169 17.5836,9.4278773 17.52848,9.3302743 17.124611,8.9279988 L 16.802444,8.6058148 17.55584,7.8474612 c 0.790796,-0.7959081 0.878513,-0.9057801 0.986354,-1.2193118 0.07575,-0.2202603 0.09564,-0.6386893 0.03965,-0.8773101 C 18.450198,5.1897576 17.968217,4.7077782 17.40714,4.5761308 17.287831,4.5481364 17.123495,4.5393931 16.961051,4.5463909 Z m -4.535248,3.9355037 -2.265145,2.2676239 -2.7013197,2.701322 -0.7707449,1.491922 -0.7682662,1.491924 0.4014807,0.40148 0.399002,0.403958 0.2503069,-0.131347 c 0.137199,-0.07269 0.8091684,-0.420772 1.4944002,-0.773223 L 9.7120949,15.69368 12.410938,12.994838 14.673607,10.73217 13.548468,9.6070326 Z M 6.713381,17.837391 c -0.1176187,0.03775 -0.7279644,0.938836 -0.9888333,1.459705 -0.4842211,0.966845 -0.3232269,1.71973 0.4560029,2.138754 0.1363729,0.07331 0.3159802,0.09976 0.5947866,0.08426 0.9916246,-0.05496 1.4720107,-0.925663 1.075572,-1.950404 C 7.6721365,19.107596 6.8160961,17.804425 6.713381,17.83739 Z"
     id="path851"
     inkscape:connector-curvature="0" />
</svg>
