<?xml version="1.0" encoding="UTF-8" standalone="no"?>
<svg
   xmlns:dc="http://purl.org/dc/elements/1.1/"
   xmlns:cc="http://creativecommons.org/ns#"
   xmlns:rdf="http://www.w3.org/1999/02/22-rdf-syntax-ns#"
   xmlns:svg="http://www.w3.org/2000/svg"
   xmlns="http://www.w3.org/2000/svg"
   xmlns:sodipodi="http://sodipodi.sourceforge.net/DTD/sodipodi-0.dtd"
   xmlns:inkscape="http://www.inkscape.org/namespaces/inkscape"
   width="24"
   height="24"
   viewBox="0 0 24 24"
   version="1.1"
   id="svg6"
   sodipodi:docname="icon_trash.svg"
   inkscape:version="0.92.4 5da689c313, 2019-01-14">
  <metadata
     id="metadata12">
    <rdf:RDF>
      <cc:Work
         rdf:about="">
        <dc:format>image/svg+xml</dc:format>
        <dc:type
           rdf:resource="http://purl.org/dc/dcmitype/StillImage" />
        <dc:title />
      </cc:Work>
    </rdf:RDF>
  </metadata>
  <defs
     id="defs10" />
  <sodipodi:namedview
     pagecolor="#ffffff"
     bordercolor="#666666"
     borderopacity="1"
     objecttolerance="10"
     gridtolerance="10"
     guidetolerance="10"
     inkscape:pageopacity="0"
     inkscape:pageshadow="2"
     inkscape:window-width="1900"
     inkscape:window-height="1036"
     id="namedview8"
     showgrid="false"
     inkscape:zoom="7.0195856"
     inkscape:cx="12.849418"
     inkscape:cy="47.000001"
     inkscape:window-x="1930"
     inkscape:window-y="34"
     inkscape:window-maximized="1"
     inkscape:current-layer="svg6"
     inkscape:snap-global="false"
     showguides="true"
     inkscape:guide-bbox="true">
    <sodipodi:guide
       position="0,1.7095026"
       orientation="1,0"
       id="guide853"
       inkscape:locked="false"
       inkscape:label=""
       inkscape:color="rgb(0,0,255)" />
    <sodipodi:guide
       position="-25.927456,0"
       orientation="0,1"
       id="guide855"
       inkscape:locked="false"
       inkscape:label=""
       inkscape:color="rgb(0,0,255)" />
  </sodipodi:namedview>
  <g
     aria-label=""
     style="font-style:normal;font-weight:normal;font-size:16px;line-height:1.25;font-family:sans-serif;letter-spacing:0px;word-spacing:0px;fill:#333333;fill-opacity:1;stroke:none;stroke-width:0.40000001"
     id="text972">
    <path
       d="M 13.375,17 Q 13,17 13,16.625 V 9.875 Q 13,9.5 13.375,9.5 h 0.75 q 0.375,0 0.375,0.375 v 6.75 Q 14.5,17 14.125,17 Z M 18.5,6.5 q 0.21875,0 0.34375,0.15625 Q 19,6.78125 19,7 V 7.5 Q 19,7.71875 18.84375,7.875 18.71875,8 18.5,8 H 18 v 10.5 q 0,0.625 -0.4375,1.0625 Q 17.125,20 16.5,20 h -9 Q 6.875,20 6.4375,19.5625 6,19.125 6,18.5 V 8 H 5.5 Q 5.28125,8 5.125,7.875 5,7.71875 5,7.5 V 7 Q 5,6.78125 5.125,6.65625 5.28125,6.5 5.5,6.5 H 8.0625 L 9.125,4.71875 Q 9.3125,4.4375 9.6875,4.21875 10.0625,4 10.4375,4 h 3.125 q 0.25,0 0.5,0.09375 0.25,0.09375 0.46875,0.28125 Q 14.75,4.53125 14.875,4.71875 L 15.9375,6.5 Z M 10.375,5.59375 9.8125,6.5 h 4.375 L 13.625,5.59375 Q 13.5625,5.5 13.46875,5.5 h -2.9375 Q 10.4375,5.5 10.375,5.59375 Z M 16.5,18.5 V 8 h -9 V 18.5 Z M 9.875,17 Q 9.5,17 9.5,16.625 V 9.875 Q 9.5,9.5 9.875,9.5 h 0.75 Q 11,9.5 11,9.875 v 6.75 Q 11,17 10.625,17 Z"
       style="fill:#333333;stroke-width:0.40000001"
       id="path823" />
  </g>
</svg>
