<?xml version="1.0" encoding="UTF-8" standalone="no"?>
<svg
   xmlns:dc="http://purl.org/dc/elements/1.1/"
   xmlns:cc="http://creativecommons.org/ns#"
   xmlns:rdf="http://www.w3.org/1999/02/22-rdf-syntax-ns#"
   xmlns:svg="http://www.w3.org/2000/svg"
   xmlns="http://www.w3.org/2000/svg"
   xmlns:sodipodi="http://sodipodi.sourceforge.net/DTD/sodipodi-0.dtd"
   xmlns:inkscape="http://www.inkscape.org/namespaces/inkscape"
   width="24"
   height="24"
   viewBox="0 0 24 24"
   version="1.1"
   id="svg6"
   sodipodi:docname="icon_config.svg"
   inkscape:version="0.92.4 5da689c313, 2019-01-14">
  <metadata
     id="metadata12">
    <rdf:RDF>
      <cc:Work
         rdf:about="">
        <dc:format>image/svg+xml</dc:format>
        <dc:type
           rdf:resource="http://purl.org/dc/dcmitype/StillImage" />
        <dc:title></dc:title>
      </cc:Work>
    </rdf:RDF>
  </metadata>
  <defs
     id="defs10" />
  <sodipodi:namedview
     pagecolor="#ffffff"
     bordercolor="#666666"
     borderopacity="1"
     objecttolerance="10"
     gridtolerance="10"
     guidetolerance="10"
     inkscape:pageopacity="0"
     inkscape:pageshadow="2"
     inkscape:window-width="1910"
     inkscape:window-height="1045"
     id="namedview8"
     showgrid="false"
     inkscape:zoom="30.220542"
     inkscape:cx="7.1454545"
     inkscape:cy="11.154545"
     inkscape:window-x="1925"
     inkscape:window-y="30"
     inkscape:window-maximized="1"
     inkscape:current-layer="svg6"
     inkscape:snap-global="false"
     showguides="true"
     inkscape:guide-bbox="true">
    <sodipodi:guide
       position="0,1.7095026"
       orientation="1,0"
       id="guide853"
       inkscape:locked="false"
       inkscape:label=""
       inkscape:color="rgb(0,0,255)" />
    <sodipodi:guide
       position="-25.927456,0"
       orientation="0,1"
       id="guide855"
       inkscape:locked="false"
       inkscape:label=""
       inkscape:color="rgb(0,0,255)" />
  </sodipodi:namedview>
  <g
     id="g853"
     transform="translate(14.891859,0.01141408)">
    <path
       id="path847"
       d="m 3.1469586,8.0797532 c 0,-0.375 -0.1875,-0.78125 -0.46875,-1.0625 l -2.59375,-2.59375 c -0.28125,-0.28125 -0.6875,-0.46875 -1.0625,-0.46875 h -6.375 c -0.84375,0 -1.5,0.6875 -1.5,1.5 V 18.454753 c 0,0.84375 0.65625,1.5 1.5,1.5 h 9 c 0.8125,0 1.5,-0.65625 1.5,-1.5 z"
       style="font-style:normal;font-weight:normal;font-size:40px;line-height:1.25;font-family:sans-serif;letter-spacing:0px;word-spacing:0px;fill:#666666;fill-opacity:1;stroke:none;stroke-width:0.40000001"
       inkscape:connector-curvature="0" />
    <path
       d="m 1.6469586,18.454753 h -9 V 5.4547532 h 5 v 3.25 c 0,0.4374998 0.3125,0.7499998 0.75,0.7499998 h 3.25 z m -2.5,-12.8749998 2.375,2.375 h -2.375 z"
       style="font-style:normal;font-weight:normal;font-size:40px;line-height:1.25;font-family:sans-serif;letter-spacing:0px;word-spacing:0px;fill:#66ccff;fill-opacity:1;stroke:none;stroke-width:0.40000001"
       id="path827"
       inkscape:connector-curvature="0" />
    <path
       id="path845"
       d="m -0.2280414,13.954753 h -5.25 c -0.21875,0 -0.375,0.1875 -0.375,0.375 v 0.875 c 0,0.21875 0.15625,0.375 0.375,0.375 h 5.25 c 0.1875,0 0.375,-0.15625 0.375,-0.375 v -0.875 c 0,-0.1875 -0.1875,-0.375 -0.375,-0.375 z"
       style="font-style:normal;font-weight:normal;font-size:40px;line-height:1.25;font-family:sans-serif;letter-spacing:0px;word-spacing:0px;fill:#666666;fill-opacity:1;stroke:none;stroke-width:0.40000001"
       inkscape:connector-curvature="0" />
    <path
       id="path835"
       d="m 0.1469586,11.704753 c 0,-0.1875 -0.1875,-0.375 -0.375,-0.375 h -5.25 c -0.21875,0 -0.375,0.1875 -0.375,0.375 v 0.875 c 0,0.21875 0.15625,0.375 0.375,0.375 h 5.25 c 0.1875,0 0.375,-0.15625 0.375,-0.375 z"
       style="font-style:normal;font-weight:normal;font-size:40px;line-height:1.25;font-family:sans-serif;letter-spacing:0px;word-spacing:0px;fill:#666666;fill-opacity:1;stroke:none;stroke-width:0.40000001"
       inkscape:connector-curvature="0" />
  </g>
</svg>
