<?xml version="1.0" encoding="UTF-8" standalone="no"?>
<svg
   xmlns:dc="http://purl.org/dc/elements/1.1/"
   xmlns:cc="http://creativecommons.org/ns#"
   xmlns:rdf="http://www.w3.org/1999/02/22-rdf-syntax-ns#"
   xmlns:svg="http://www.w3.org/2000/svg"
   xmlns="http://www.w3.org/2000/svg"
   xmlns:sodipodi="http://sodipodi.sourceforge.net/DTD/sodipodi-0.dtd"
   xmlns:inkscape="http://www.inkscape.org/namespaces/inkscape"
   width="24"
   height="24"
   viewBox="0 0 24 24"
   version="1.1"
   id="svg6"
   sodipodi:docname="icon_menu.svg"
   inkscape:version="0.92.4 5da689c313, 2019-01-14">
  <metadata
     id="metadata12">
    <rdf:RDF>
      <cc:Work
         rdf:about="">
        <dc:format>image/svg+xml</dc:format>
        <dc:type
           rdf:resource="http://purl.org/dc/dcmitype/StillImage" />
        <dc:title></dc:title>
      </cc:Work>
    </rdf:RDF>
  </metadata>
  <defs
     id="defs10" />
  <sodipodi:namedview
     pagecolor="#ffffff"
     bordercolor="#666666"
     borderopacity="1"
     objecttolerance="10"
     gridtolerance="10"
     guidetolerance="10"
     inkscape:pageopacity="0"
     inkscape:pageshadow="2"
     inkscape:window-width="937"
     inkscape:window-height="1002"
     id="namedview8"
     showgrid="false"
     inkscape:zoom="27.59167"
     inkscape:cx="13.032328"
     inkscape:cy="11.220347"
     inkscape:window-x="14"
     inkscape:window-y="38"
     inkscape:window-maximized="0"
     inkscape:current-layer="svg6"
     inkscape:snap-global="false"
     showguides="true"
     inkscape:guide-bbox="true">
    <sodipodi:guide
       position="0,1.7095026"
       orientation="1,0"
       id="guide853"
       inkscape:locked="false"
       inkscape:label=""
       inkscape:color="rgb(0,0,255)" />
    <sodipodi:guide
       position="-25.927456,0"
       orientation="0,1"
       id="guide855"
       inkscape:locked="false"
       inkscape:label=""
       inkscape:color="rgb(0,0,255)" />
  </sodipodi:namedview>
  <path
     style="opacity:1;fill:#ff66ff;fill-opacity:0;fill-rule:nonzero;stroke:#333333;stroke-width:0.8;stroke-linecap:round;stroke-linejoin:round;stroke-miterlimit:4;stroke-dasharray:none;stroke-opacity:1"
     d="M 12 5.6601562 A 1.6309271 1.6309271 0 0 0 10.369141 7.2929688 A 1.6309271 1.6309271 0 0 0 12 8.9238281 A 1.6309271 1.6309271 0 0 0 13.630859 7.2929688 A 1.6309271 1.6309271 0 0 0 12 5.6601562 z M 12 10.365234 A 1.6309271 1.6309271 0 0 0 10.369141 11.996094 A 1.6309271 1.6309271 0 0 0 12 13.626953 A 1.6309271 1.6309271 0 0 0 13.630859 11.996094 A 1.6309271 1.6309271 0 0 0 12 10.365234 z M 12 15.048828 A 1.6309271 1.6309271 0 0 0 10.369141 16.679688 A 1.6309271 1.6309271 0 0 0 12 18.310547 A 1.6309271 1.6309271 0 0 0 13.630859 16.679688 A 1.6309271 1.6309271 0 0 0 12 15.048828 z "
     id="path4671-36-5" />
</svg>
