<?xml version="1.0" encoding="UTF-8" standalone="no"?>
<svg
   xmlns:dc="http://purl.org/dc/elements/1.1/"
   xmlns:cc="http://creativecommons.org/ns#"
   xmlns:rdf="http://www.w3.org/1999/02/22-rdf-syntax-ns#"
   xmlns:svg="http://www.w3.org/2000/svg"
   xmlns="http://www.w3.org/2000/svg"
   xmlns:sodipodi="http://sodipodi.sourceforge.net/DTD/sodipodi-0.dtd"
   xmlns:inkscape="http://www.inkscape.org/namespaces/inkscape"
   width="24"
   height="24"
   viewBox="0 0 24 24"
   version="1.1"
   id="svg6"
   sodipodi:docname="icon_about.svg"
   inkscape:version="0.92.4 5da689c313, 2019-01-14">
  <metadata
     id="metadata12">
    <rdf:RDF>
      <cc:Work
         rdf:about="">
        <dc:format>image/svg+xml</dc:format>
        <dc:type
           rdf:resource="http://purl.org/dc/dcmitype/StillImage" />
        <dc:title />
      </cc:Work>
    </rdf:RDF>
  </metadata>
  <defs
     id="defs10" />
  <sodipodi:namedview
     pagecolor="#ffffff"
     bordercolor="#666666"
     borderopacity="1"
     objecttolerance="10"
     gridtolerance="10"
     guidetolerance="10"
     inkscape:pageopacity="0"
     inkscape:pageshadow="2"
     inkscape:window-width="1910"
     inkscape:window-height="1021"
     id="namedview8"
     showgrid="false"
     inkscape:zoom="18.679345"
     inkscape:cx="4.7273404"
     inkscape:cy="13.682599"
     inkscape:window-x="5"
     inkscape:window-y="30"
     inkscape:window-maximized="1"
     inkscape:current-layer="svg6"
     inkscape:snap-global="false"
     showguides="true"
     inkscape:guide-bbox="true">
    <sodipodi:guide
       position="0,1.7095026"
       orientation="1,0"
       id="guide853"
       inkscape:locked="false"
       inkscape:label=""
       inkscape:color="rgb(0,0,255)" />
    <sodipodi:guide
       position="-25.927456,0"
       orientation="0,1"
       id="guide855"
       inkscape:locked="false"
       inkscape:label=""
       inkscape:color="rgb(0,0,255)" />
  </sodipodi:namedview>
  <g
     aria-label="i"
     style="font-style:normal;font-weight:normal;font-size:14.7194376px;line-height:1.25;font-family:sans-serif;letter-spacing:0px;word-spacing:0px;fill:#66ccff;fill-opacity:1;stroke:#808080;stroke-width:0.5913071;stroke-miterlimit:4;stroke-dasharray:none"
     id="text2091"
     transform="matrix(1.3529349,0,0,1.3529349,22.100833,2.6871551)">
    <path
       d="m -4.9612962,12.060859 h -4.5423264 v -0.524668 q 0.1868679,-0.01437 0.3665485,-0.03594 0.1796806,-0.02156 0.3090507,-0.07187 0.2299912,-0.08625 0.3234251,-0.244366 0.093434,-0.165306 0.093434,-0.431233 V 6.5698185 q 0,-0.2515529 -0.1149957,-0.4384207 Q -8.6411556,5.9373427 -8.813649,5.8223471 -8.943019,5.7361004 -9.2089464,5.6570409 -9.4676865,5.5779814 -9.6833032,5.5564197 V 5.0317523 l 3.5217404,-0.1868679 0.1078084,0.1078084 V 10.65935 q 0,0.251553 0.1078084,0.431233 0.1078083,0.172494 0.3090507,0.25874 0.1437445,0.06469 0.3162379,0.114996 0.1724934,0.05031 0.3593612,0.07187 z M -6.0106311,2.2574833 q 0,0.5462291 -0.4240463,0.9343393 -0.416859,0.3809229 -0.9918371,0.3809229 -0.5821652,0 -1.0062115,-0.3809229 -0.4168591,-0.3881102 -0.4168591,-0.9343393 0,-0.5462291 0.4168591,-0.9343393 0.4240463,-0.38811018 1.0062115,-0.38811018 0.5821653,0 0.9990244,0.38811018 0.416859,0.3881102 0.416859,0.9343393 z"
       style="font-style:normal;font-variant:normal;font-weight:bold;font-stretch:normal;font-family:Georgia;-inkscape-font-specification:'Georgia Bold';fill:#66ccff;fill-opacity:1;stroke:#808080;stroke-width:0.5913071;stroke-miterlimit:4;stroke-dasharray:none"
       id="path2366"
       inkscape:connector-curvature="0" />
  </g>
</svg>
