<?xml version="1.0" encoding="UTF-8" standalone="no"?>
<svg
   xmlns:dc="http://purl.org/dc/elements/1.1/"
   xmlns:cc="http://creativecommons.org/ns#"
   xmlns:rdf="http://www.w3.org/1999/02/22-rdf-syntax-ns#"
   xmlns:svg="http://www.w3.org/2000/svg"
   xmlns="http://www.w3.org/2000/svg"
   xmlns:sodipodi="http://sodipodi.sourceforge.net/DTD/sodipodi-0.dtd"
   xmlns:inkscape="http://www.inkscape.org/namespaces/inkscape"
   width="24"
   height="24"
   viewBox="0 0 24 24"
   version="1.1"
   id="svg6"
   sodipodi:docname="icon_old.svg"
   inkscape:version="0.92.4 5da689c313, 2019-01-14">
  <metadata
     id="metadata12">
    <rdf:RDF>
      <cc:Work
         rdf:about="">
        <dc:format>image/svg+xml</dc:format>
        <dc:type
           rdf:resource="http://purl.org/dc/dcmitype/StillImage" />
        <dc:title></dc:title>
      </cc:Work>
    </rdf:RDF>
  </metadata>
  <defs
     id="defs10" />
  <sodipodi:namedview
     pagecolor="#ffffff"
     bordercolor="#666666"
     borderopacity="1"
     objecttolerance="10"
     gridtolerance="10"
     guidetolerance="10"
     inkscape:pageopacity="0"
     inkscape:pageshadow="2"
     inkscape:window-width="1890"
     inkscape:window-height="1002"
     id="namedview8"
     showgrid="false"
     inkscape:zoom="17.132868"
     inkscape:cx="11.023019"
     inkscape:cy="6.6982471"
     inkscape:window-x="14"
     inkscape:window-y="38"
     inkscape:window-maximized="0"
     inkscape:current-layer="svg6"
     inkscape:snap-global="false"
     showguides="true"
     inkscape:guide-bbox="true">
    <sodipodi:guide
       position="0,1.7095026"
       orientation="1,0"
       id="guide853"
       inkscape:locked="false"
       inkscape:label=""
       inkscape:color="rgb(0,0,255)" />
    <sodipodi:guide
       position="-25.927456,0"
       orientation="0,1"
       id="guide855"
       inkscape:locked="false"
       inkscape:label=""
       inkscape:color="rgb(0,0,255)" />
    <sodipodi:guide
       position="20,-7.5503033"
       orientation="1,0"
       id="guide934"
       inkscape:locked="false"
       inkscape:label=""
       inkscape:color="rgb(0,0,255)" />
    <sodipodi:guide
       position="-47.153781,4"
       orientation="0,1"
       id="guide936"
       inkscape:locked="false"
       inkscape:label=""
       inkscape:color="rgb(0,0,255)" />
    <sodipodi:guide
       position="4,31.625799"
       orientation="1,0"
       id="guide938"
       inkscape:locked="false"
       inkscape:label=""
       inkscape:color="rgb(0,0,255)" />
    <sodipodi:guide
       position="11.790204,20"
       orientation="0,1"
       id="guide1005"
       inkscape:locked="false"
       inkscape:label=""
       inkscape:color="rgb(0,0,255)" />
  </sodipodi:namedview>
  <path
     style="font-style:normal;font-weight:normal;font-size:16.51647186px;line-height:1.25;font-family:sans-serif;letter-spacing:0px;word-spacing:0px;fill:#cccccc;fill-opacity:1;stroke:#333333;stroke-width:0.80000001;stroke-miterlimit:4;stroke-dasharray:none;paint-order:markers stroke fill"
     d="m 7.9191656,4.3914286 c -1.0714907,0 -1.9133721,0.3068618 -2.5252264,0.922168 -0.6088703,0.6153067 -0.9121964,1.4651605 -0.9121964,2.5494139 0,1.0812672 0.3033261,1.9303966 0.9121964,2.5457035 0.6118542,0.615306 1.4537357,0.922168 2.5252264,0.922168 1.0744747,0 1.9163573,-0.306862 2.5252264,-0.922168 0.60887,-0.6153069 0.91405,-1.4644363 0.91405,-2.5457035 0,-1.0842534 -0.30518,-1.9341072 -0.91405,-2.5494139 C 9.8355228,4.6982904 8.9936402,4.3914286 7.9191656,4.3914286 Z m 0,1.2505858 c 0.5282838,1e-7 0.9378755,0.1943174 1.2273861,0.5826172 0.2895112,0.3883005 0.4338495,0.933465 0.4338495,1.6383789 0,0.7019278 -0.1443383,1.2482236 -0.4338495,1.6365238 -0.2895106,0.3883002 -0.6991023,0.5826167 -1.2273861,0.5826167 -0.5252997,0 -0.932312,-0.1943165 -1.2218239,-0.5826167 C 6.4078309,9.1112341 6.2634922,8.5649383 6.2634922,7.8630105 6.2634921,7.1580966 6.4078309,6.6129321 6.6973417,6.2246316 6.9868536,5.8363318 7.3938659,5.6420144 7.9191656,5.6420144 Z M 15.046163,6.7849832 V 14.908226 L 13.125359,12.98596 12.139,13.971213 l 3.235331,3.237794 h 0.737916 L 19.33089,13.971213 18.346385,12.98596 16.440414,14.908226 V 6.7849832 Z M 4.9248626,12.902464 v 6.688964 h 1.6334247 v -4.588573 l 2.4306696,4.588573 H 10.915323 V 12.902464 H 9.2800439 v 4.588574 L 6.8493744,12.902464 Z"
     id="path1002"
     inkscape:connector-curvature="0" />
</svg>
