<?xml version="1.0" encoding="UTF-8" standalone="no"?>
<svg
   xmlns:dc="http://purl.org/dc/elements/1.1/"
   xmlns:cc="http://creativecommons.org/ns#"
   xmlns:rdf="http://www.w3.org/1999/02/22-rdf-syntax-ns#"
   xmlns:svg="http://www.w3.org/2000/svg"
   xmlns="http://www.w3.org/2000/svg"
   xmlns:sodipodi="http://sodipodi.sourceforge.net/DTD/sodipodi-0.dtd"
   xmlns:inkscape="http://www.inkscape.org/namespaces/inkscape"
   width="24"
   height="24"
   viewBox="0 0 24 24"
   version="1.1"
   id="svg6"
   sodipodi:docname="icon_refresh.svg"
   inkscape:version="0.92.4 5da689c313, 2019-01-14">
  <metadata
     id="metadata12">
    <rdf:RDF>
      <cc:Work
         rdf:about="">
        <dc:format>image/svg+xml</dc:format>
        <dc:type
           rdf:resource="http://purl.org/dc/dcmitype/StillImage" />
        <dc:title></dc:title>
      </cc:Work>
    </rdf:RDF>
  </metadata>
  <defs
     id="defs10" />
  <sodipodi:namedview
     pagecolor="#ffffff"
     bordercolor="#666666"
     borderopacity="1"
     objecttolerance="10"
     gridtolerance="10"
     guidetolerance="10"
     inkscape:pageopacity="0"
     inkscape:pageshadow="2"
     inkscape:window-width="1890"
     inkscape:window-height="1002"
     id="namedview8"
     showgrid="false"
     inkscape:zoom="7.1744663"
     inkscape:cx="-7.0604786"
     inkscape:cy="47.000001"
     inkscape:window-x="14"
     inkscape:window-y="38"
     inkscape:window-maximized="0"
     inkscape:current-layer="svg6"
     inkscape:snap-global="false"
     showguides="true"
     inkscape:guide-bbox="true">
    <sodipodi:guide
       position="0,1.7095026"
       orientation="1,0"
       id="guide853"
       inkscape:locked="false"
       inkscape:label=""
       inkscape:color="rgb(0,0,255)" />
    <sodipodi:guide
       position="-25.927456,0"
       orientation="0,1"
       id="guide855"
       inkscape:locked="false"
       inkscape:label=""
       inkscape:color="rgb(0,0,255)" />
  </sodipodi:namedview>
  <g
     aria-label=""
     style="font-style:normal;font-variant:normal;font-weight:normal;font-stretch:normal;font-size:40px;line-height:1.25;font-family:'UbuntuMono Nerd Font';-inkscape-font-specification:'UbuntuMono Nerd Font';letter-spacing:0px;word-spacing:0px;fill:#cccccc;fill-opacity:1;stroke:#333333;stroke-width:2.07515144;stroke-miterlimit:4;stroke-dasharray:none"
     id="text3842"
     transform="matrix(0.38551402,0,0,0.38551402,42.380057,26.037806)">
    <path
       d="m -61.487713,-50.412136 v 10 q 0,0.56 -0.4,0.96 -0.4,0.4 -1.04,0.4 h -10 q -0.88,0 -1.28,-0.88 -0.4,-0.88 0.32,-1.52 l 3.04,-3.04 q -3.28,-3.12 -7.76,-3.12 -4.72,0 -8.08,3.36 -3.36,3.36 -3.36,8.08 0,4.72 3.36,8.08 3.36,3.36 8.08,3.36 5.6,0 9.04,-4.4 0.16,-0.24 0.48,-0.32 0.32,0 0.56,0.24 l 3.04,3.04 q 0.48,0.48 0.08,0.96 -2.48,2.96 -5.92,4.56 -3.44,1.6 -7.28,1.6 -7.04,0 -12.08,-5 -5.04,-5 -5.04,-12.08 0,-7.08 5.04,-12.12 5.04,-5.04 12.08,-5.04 6.72,0 11.84,4.72 l 2.88,-2.88 q 0.64,-0.72 1.52,-0.32 0.88,0.4 0.88,1.36 z"
       id="path3844"
       inkscape:connector-curvature="0"
       style="fill:#cccccc;stroke:#333333;stroke-width:2.07515144;stroke-miterlimit:4;stroke-dasharray:none" />
  </g>
</svg>
