<?xml version="1.0" encoding="UTF-8" standalone="no"?>
<svg
   xmlns:dc="http://purl.org/dc/elements/1.1/"
   xmlns:cc="http://creativecommons.org/ns#"
   xmlns:rdf="http://www.w3.org/1999/02/22-rdf-syntax-ns#"
   xmlns:svg="http://www.w3.org/2000/svg"
   xmlns="http://www.w3.org/2000/svg"
   xmlns:sodipodi="http://sodipodi.sourceforge.net/DTD/sodipodi-0.dtd"
   xmlns:inkscape="http://www.inkscape.org/namespaces/inkscape"
   width="24"
   height="24"
   viewBox="0 0 24 24"
   version="1.1"
   id="svg6"
   sodipodi:docname="icon_all.svg"
   inkscape:version="0.92.4 5da689c313, 2019-01-14">
  <metadata
     id="metadata12">
    <rdf:RDF>
      <cc:Work
         rdf:about="">
        <dc:format>image/svg+xml</dc:format>
        <dc:type
           rdf:resource="http://purl.org/dc/dcmitype/StillImage" />
        <dc:title></dc:title>
      </cc:Work>
    </rdf:RDF>
  </metadata>
  <defs
     id="defs10" />
  <sodipodi:namedview
     pagecolor="#ffffff"
     bordercolor="#666666"
     borderopacity="1"
     objecttolerance="10"
     gridtolerance="10"
     guidetolerance="10"
     inkscape:pageopacity="0"
     inkscape:pageshadow="2"
     inkscape:window-width="1900"
     inkscape:window-height="1036"
     id="namedview8"
     showgrid="false"
     inkscape:zoom="18.934783"
     inkscape:cx="12.5"
     inkscape:cy="13.654994"
     inkscape:window-x="1930"
     inkscape:window-y="34"
     inkscape:window-maximized="1"
     inkscape:current-layer="svg6"
     inkscape:snap-global="false"
     showguides="true"
     inkscape:guide-bbox="true">
    <sodipodi:guide
       position="0,1.7095026"
       orientation="1,0"
       id="guide853"
       inkscape:locked="false"
       inkscape:label=""
       inkscape:color="rgb(0,0,255)" />
    <sodipodi:guide
       position="-25.927456,0"
       orientation="0,1"
       id="guide855"
       inkscape:locked="false"
       inkscape:label=""
       inkscape:color="rgb(0,0,255)" />
  </sodipodi:namedview>
  <path
     id="path1121-3"
     style="font-style:normal;font-weight:normal;font-size:40px;line-height:1.25;font-family:sans-serif;letter-spacing:0px;word-spacing:0px;fill:#333333;fill-opacity:1;stroke:none;stroke-width:0.21140724"
     d="m 18.520017,14.219976 4.259622,1.276687 V 8.1055297 L 18.520017,6.8288421 Z m 0,-8.7433306 4.259622,1.2766875 q 0.218176,0.065392 0.374015,0.5190714 0.15584,0.4405517 0.15584,0.9919328 V 15.65547 q 0,0.551382 -0.150645,0.978843 -0.15584,0.425904 -0.368821,0.480223 l -1.163604,0.228879 q 0,0 0.145451,0.227389 0.14545,0.227388 0.275317,0.489489 0.124671,0.247415 0.150645,0.438995 0.02597,0.191579 -0.218176,0.118406 l -2.659666,-0.797151 q -0.244149,-0.07318 -0.218176,-0.249185 0.02597,-0.176009 0.15584,-0.347135 0.124672,-0.185813 0.270122,-0.326012 0.145451,-0.140199 0.145451,-0.140199 l -1.163604,-0.926391 q -0.212981,-0.181988 -0.363626,-0.699752 -0.15584,-0.51932 -0.15584,-1.0707 V 6.6700347 q 0,-0.5513811 0.15584,-0.8985167 0.155839,-0.3602639 0.374015,-0.2948726 z M 5.3719099,14.219976 1.1122882,15.496663 V 8.1055298 L 5.3719099,6.8288422 Z m 0,-8.7433306 L 1.1122882,6.753333 Q 0.89411244,6.8187249 0.73827263,7.2724044 0.58243283,7.7129561 0.58243283,8.2643372 V 15.65547 q 0,0.551382 0.15064521,0.978843 0.1558398,0.425904 0.36882086,0.480223 l 1.1636037,0.228879 q 0,0 -0.1454503,0.227389 -0.1454503,0.227388 -0.2753169,0.489489 -0.1246718,0.247415 -0.1506452,0.438995 -0.025973,0.191579 0.2181758,0.118406 L 4.5719319,17.820543 Q 4.816081,17.747367 4.7901076,17.571358 4.7641346,17.395349 4.634268,17.224223 4.5095962,17.03841 4.3641459,16.898211 4.218695,16.758012 4.218695,16.758012 l 1.1636042,-0.926391 q 0.2129808,-0.181988 0.3636261,-0.699752 0.1558401,-0.51932 0.1558401,-1.0707 V 6.6700348 q 0,-0.5513812 -0.1558401,-0.8985168 Q 5.5900857,5.4112541 5.3719099,5.4766454 Z M 16.082403,13.90284 H 7.8095237 V 6.5117068 h 8.2728793 z m 0,-8.74333 H 7.8095237 q -0.4237329,0 -0.7263992,0.406972 Q 6.7804582,5.9603256 6.7804582,6.5117068 V 13.90284 q 0,0.551381 0.2925776,1.023994 0.3026663,0.472612 0.7163101,0.590765 l 2.2599081,0.577637 q 0,0 -0.2824881,0.183794 -0.2824883,0.183794 -0.5347104,0.406972 -0.242133,0.21005 -0.2925775,0.393844 -0.050445,0.183793 0.4237328,0.183793 h 5.1655042 q 0.474178,0 0.423733,-0.183793 -0.05044,-0.183794 -0.302666,-0.393844 -0.242133,-0.223178 -0.524621,-0.406972 -0.282489,-0.183794 -0.282489,-0.183794 l 2.259909,-0.577637 q 0.413644,-0.118153 0.706221,-0.590765 0.302667,-0.472613 0.302667,-1.023994 V 6.5117068 q 0,-0.5513812 -0.302667,-0.9452248 Q 16.506136,5.15951 16.082403,5.15951 Z" />
</svg>
