<?xml version="1.0" encoding="UTF-8" standalone="no"?>
<svg
   xmlns:dc="http://purl.org/dc/elements/1.1/"
   xmlns:cc="http://creativecommons.org/ns#"
   xmlns:rdf="http://www.w3.org/1999/02/22-rdf-syntax-ns#"
   xmlns:svg="http://www.w3.org/2000/svg"
   xmlns="http://www.w3.org/2000/svg"
   xmlns:sodipodi="http://sodipodi.sourceforge.net/DTD/sodipodi-0.dtd"
   xmlns:inkscape="http://www.inkscape.org/namespaces/inkscape"
   width="24"
   height="24"
   viewBox="0 0 24 24"
   version="1.1"
   id="svg6"
   sodipodi:docname="icon_picker.svg"
   inkscape:version="0.92.4 5da689c313, 2019-01-14">
  <metadata
     id="metadata12">
    <rdf:RDF>
      <cc:Work
         rdf:about="">
        <dc:format>image/svg+xml</dc:format>
        <dc:type
           rdf:resource="http://purl.org/dc/dcmitype/StillImage" />
        <dc:title />
      </cc:Work>
    </rdf:RDF>
  </metadata>
  <defs
     id="defs10" />
  <sodipodi:namedview
     pagecolor="#ffffff"
     bordercolor="#666666"
     borderopacity="1"
     objecttolerance="10"
     gridtolerance="10"
     guidetolerance="10"
     inkscape:pageopacity="0"
     inkscape:pageshadow="2"
     inkscape:window-width="1900"
     inkscape:window-height="1004"
     id="namedview8"
     showgrid="false"
     inkscape:zoom="15.189114"
     inkscape:cx="25.218786"
     inkscape:cy="4.1053837"
     inkscape:window-x="10"
     inkscape:window-y="33"
     inkscape:window-maximized="1"
     inkscape:current-layer="svg6"
     inkscape:snap-global="false"
     showguides="true"
     inkscape:guide-bbox="true">
    <sodipodi:guide
       position="0,1.7095026"
       orientation="1,0"
       id="guide853"
       inkscape:locked="false"
       inkscape:label=""
       inkscape:color="rgb(0,0,255)" />
    <sodipodi:guide
       position="-25.927456,0"
       orientation="0,1"
       id="guide855"
       inkscape:locked="false"
       inkscape:label=""
       inkscape:color="rgb(0,0,255)" />
  </sodipodi:namedview>
  <path
     style="fill:#66ccff;fill-opacity:1;stroke:#808080;stroke-width:0.83899999;stroke-miterlimit:4;stroke-dasharray:none"
     d="m 16.971628,3.4642707 c -0.162443,0.007 -0.323569,0.029036 -0.433699,0.066913 C 16.224396,3.63902 16.116961,3.7291758 15.321095,4.5200166 L 14.562741,5.273413 14.238088,4.9487587 C 13.871994,4.5812518 13.750375,4.5056534 13.497083,4.4853209 c -0.32735,-0.026276 -0.610784,0.1321096 -0.76083,0.4262637 -0.07693,0.1507733 -0.08691,0.192332 -0.08675,0.3593501 3.11e-4,0.3648867 -0.08715,0.2613264 1.908273,2.2552319 1.198806,1.1978964 1.804771,1.7860297 1.876056,1.8215327 0.05789,0.02884 0.146783,0.06389 0.198262,0.07683 0.144427,0.03628 0.36135,0.01131 0.510525,-0.05699 0.164063,-0.07506 0.294106,-0.202564 0.384133,-0.37422 0.05844,-0.1114717 0.06657,-0.157889 0.06691,-0.3395231 5.1e-4,-0.3080396 -0.05461,-0.4056426 -0.458479,-0.8079181 l -0.322167,-0.322184 0.753396,-0.7583536 c 0.790796,-0.7959081 0.878513,-0.9057801 0.986354,-1.2193118 0.07575,-0.2202603 0.09564,-0.6386893 0.03965,-0.8773101 C 18.46077,4.1076369 17.978789,3.6256575 17.417712,3.4940101 17.298403,3.4660157 17.134067,3.4572724 16.971623,3.4642702 Z M 12.43638,7.3997744 10.171235,9.6673983 7.4699157,12.36872 l -0.7707449,1.491922 -0.7682662,1.491924 0.4014807,0.40148 0.399002,0.403958 0.2503069,-0.131347 c 0.137199,-0.07269 0.8091684,-0.420772 1.4944002,-0.773223 L 9.7226673,14.611559 12.42151,11.912717 14.684179,9.6500493 13.55904,8.5249119 Z M 6.7239534,16.75527 c -0.1176187,0.03775 -0.7279644,0.938836 -0.9888333,1.459705 -0.4842211,0.966845 -0.3232269,1.71973 0.4560029,2.138754 0.1363729,0.07331 0.3159802,0.09976 0.5947866,0.08426 0.9916246,-0.05496 1.4720107,-0.925663 1.075572,-1.950404 -0.1787727,-0.46211 -1.0348131,-1.765281 -1.1375282,-1.732316 z"
     id="path851"
     inkscape:connector-curvature="0" />
  <path
     style="color:#000000;font-style:normal;font-variant:normal;font-weight:normal;font-stretch:normal;font-size:medium;line-height:normal;font-family:sans-serif;font-variant-ligatures:normal;font-variant-position:normal;font-variant-caps:normal;font-variant-numeric:normal;font-variant-alternates:normal;font-feature-settings:normal;text-indent:0;text-align:start;text-decoration:none;text-decoration-line:none;text-decoration-style:solid;text-decoration-color:#000000;letter-spacing:normal;word-spacing:normal;text-transform:none;writing-mode:lr-tb;direction:ltr;text-orientation:mixed;dominant-baseline:auto;baseline-shift:baseline;text-anchor:start;white-space:normal;shape-padding:0;clip-rule:nonzero;display:inline;overflow:visible;visibility:visible;opacity:0.98999999;isolation:auto;mix-blend-mode:normal;color-interpolation:sRGB;color-interpolation-filters:linearRGB;solid-color:#000000;solid-opacity:1;vector-effect:none;fill:#66ccff;fill-opacity:1;fill-rule:nonzero;stroke:none;stroke-width:0.80000007;stroke-linecap:square;stroke-linejoin:round;stroke-miterlimit:4;stroke-dasharray:none;stroke-dashoffset:0;stroke-opacity:1;paint-order:markers stroke fill;color-rendering:auto;image-rendering:auto;shape-rendering:auto;text-rendering:auto;enable-background:accumulate"
     d="M 1.0881323,0.5568029 A 0.43524481,0.43524481 0 0 0 0.65250609,0.99242916 V 5.7928183 H 1.5237586 V 1.4280555 H 5.8885215 V 0.5568029 Z m 17.1190497,0 v 0.8712526 h 4.364763 v 4.3647628 h 0.871253 V 0.99242916 A 0.43524481,0.43524481 0 0 0 23.007572,0.5568029 Z M 0.65250609,18.111479 v 4.80039 A 0.43524481,0.43524481 0 0 0 1.0881323,23.347495 H 5.8885215 V 22.476242 H 1.5237586 v -4.364763 z m 21.91943891,0 v 4.364763 h -4.364763 v 0.871253 h 4.80039 a 0.43524481,0.43524481 0 0 0 0.435626,-0.435626 v -4.80039 z"
     id="rect848"
     inkscape:connector-curvature="0" />
</svg>
