<?xml version="1.0" encoding="UTF-8" standalone="no"?>
<svg
   xmlns:dc="http://purl.org/dc/elements/1.1/"
   xmlns:cc="http://creativecommons.org/ns#"
   xmlns:rdf="http://www.w3.org/1999/02/22-rdf-syntax-ns#"
   xmlns:svg="http://www.w3.org/2000/svg"
   xmlns="http://www.w3.org/2000/svg"
   xmlns:sodipodi="http://sodipodi.sourceforge.net/DTD/sodipodi-0.dtd"
   xmlns:inkscape="http://www.inkscape.org/namespaces/inkscape"
   width="24"
   height="24"
   viewBox="0 0 24 24"
   version="1.1"
   id="svg6"
   sodipodi:docname="icon_menu.svg"
   inkscape:version="0.92.4 5da689c313, 2019-01-14">
  <metadata
     id="metadata12">
    <rdf:RDF>
      <cc:Work
         rdf:about="">
        <dc:format>image/svg+xml</dc:format>
        <dc:type
           rdf:resource="http://purl.org/dc/dcmitype/StillImage" />
        <dc:title />
      </cc:Work>
    </rdf:RDF>
  </metadata>
  <defs
     id="defs10" />
  <sodipodi:namedview
     pagecolor="#ffffff"
     bordercolor="#666666"
     borderopacity="1"
     objecttolerance="10"
     gridtolerance="10"
     guidetolerance="10"
     inkscape:pageopacity="0"
     inkscape:pageshadow="2"
     inkscape:window-width="1910"
     inkscape:window-height="1045"
     id="namedview8"
     showgrid="false"
     inkscape:zoom="27.59167"
     inkscape:cx="7.0160195"
     inkscape:cy="11.220347"
     inkscape:window-x="1925"
     inkscape:window-y="30"
     inkscape:window-maximized="1"
     inkscape:current-layer="svg6"
     inkscape:snap-global="false"
     showguides="true"
     inkscape:guide-bbox="true">
    <sodipodi:guide
       position="0,1.7095026"
       orientation="1,0"
       id="guide853"
       inkscape:locked="false"
       inkscape:label=""
       inkscape:color="rgb(0,0,255)" />
    <sodipodi:guide
       position="-25.927456,0"
       orientation="0,1"
       id="guide855"
       inkscape:locked="false"
       inkscape:label=""
       inkscape:color="rgb(0,0,255)" />
  </sodipodi:namedview>
  <path
     style="opacity:1;fill:#65ccff;fill-opacity:1;fill-rule:nonzero;stroke:#808080;stroke-width:0.83268958;stroke-linecap:round;stroke-linejoin:round;stroke-miterlimit:4;stroke-dasharray:none;stroke-opacity:1"
     d="m 12.119228,5.2356203 a 1.69757,1.69757 0 0 0 -1.697499,1.6995325 1.69757,1.69757 0 0 0 1.697499,1.6974994 1.69757,1.69757 0 0 0 1.697499,-1.6974994 1.69757,1.69757 0 0 0 -1.697499,-1.6995325 z m 0,4.8973357 a 1.69757,1.69757 0 0 0 -1.697499,1.6975 1.69757,1.69757 0 0 0 1.697499,1.697499 1.69757,1.69757 0 0 0 1.697499,-1.697499 1.69757,1.69757 0 0 0 -1.697499,-1.6975 z m 0,4.874975 a 1.69757,1.69757 0 0 0 -1.697499,1.6975 1.69757,1.69757 0 0 0 1.697499,1.697499 1.69757,1.69757 0 0 0 1.697499,-1.697499 1.69757,1.69757 0 0 0 -1.697499,-1.6975 z"
     id="path4671-36-5"
     inkscape:connector-curvature="0" />
</svg>
