<?xml version="1.0" encoding="UTF-8" standalone="no"?>
<svg
   xmlns:dc="http://purl.org/dc/elements/1.1/"
   xmlns:cc="http://creativecommons.org/ns#"
   xmlns:rdf="http://www.w3.org/1999/02/22-rdf-syntax-ns#"
   xmlns:svg="http://www.w3.org/2000/svg"
   xmlns="http://www.w3.org/2000/svg"
   xmlns:sodipodi="http://sodipodi.sourceforge.net/DTD/sodipodi-0.dtd"
   xmlns:inkscape="http://www.inkscape.org/namespaces/inkscape"
   width="24"
   height="24"
   viewBox="0 0 24 24"
   version="1.1"
   id="svg6"
   sodipodi:docname="icon_flip.svg"
   inkscape:version="0.92.4 5da689c313, 2019-01-14">
  <metadata
     id="metadata12">
    <rdf:RDF>
      <cc:Work
         rdf:about="">
        <dc:format>image/svg+xml</dc:format>
        <dc:type
           rdf:resource="http://purl.org/dc/dcmitype/StillImage" />
        <dc:title />
      </cc:Work>
    </rdf:RDF>
  </metadata>
  <defs
     id="defs10" />
  <sodipodi:namedview
     pagecolor="#ffffff"
     bordercolor="#666666"
     borderopacity="1"
     objecttolerance="10"
     gridtolerance="10"
     guidetolerance="10"
     inkscape:pageopacity="0"
     inkscape:pageshadow="2"
     inkscape:window-width="1890"
     inkscape:window-height="1002"
     id="namedview8"
     showgrid="false"
     inkscape:zoom="27.59167"
     inkscape:cx="0.99971095"
     inkscape:cy="11.220347"
     inkscape:window-x="14"
     inkscape:window-y="38"
     inkscape:window-maximized="0"
     inkscape:current-layer="svg6"
     inkscape:snap-global="false"
     showguides="true"
     inkscape:guide-bbox="true">
    <sodipodi:guide
       position="0,1.7095026"
       orientation="1,0"
       id="guide853"
       inkscape:locked="false"
       inkscape:label=""
       inkscape:color="rgb(0,0,255)" />
    <sodipodi:guide
       position="-25.927456,0"
       orientation="0,1"
       id="guide855"
       inkscape:locked="false"
       inkscape:label=""
       inkscape:color="rgb(0,0,255)" />
  </sodipodi:namedview>
  <g
     aria-label=""
     transform="scale(1,-1)"
     style="font-style:normal;font-weight:normal;font-size:22.84598732px;line-height:1.25;font-family:sans-serif;letter-spacing:0px;word-spacing:0px;fill:#65ccff;fill-opacity:1;stroke:#808080;stroke-width:0.76190478;stroke-miterlimit:4;stroke-dasharray:none"
     id="text2669">
    <path
       d="m 16.402851,-16.582575 h -1.985638 l 1.227079,-1.227079 q 0.290037,-0.290037 0.290037,-0.669316 0,-0.40159 -0.290037,-0.669316 -0.267726,-0.290037 -0.669316,-0.290037 -0.401589,0 -0.669316,0.290037 l -3.525064,3.525064 3.525064,3.525065 q 0.133864,0.133863 0.312348,0.200794 0.178484,0.06693 0.356968,0.06693 0.178485,0 0.356969,-0.06693 0.178484,-0.06693 0.312347,-0.200794 0.290037,-0.290037 0.290037,-0.669316 0,-0.40159 -0.290037,-0.669316 l -1.227079,-1.24939 h 1.985638 q 0.981663,0 1.67329,0.8478 0.713937,0.82549 0.713937,2.007948 0,1.182458 -0.8478,2.0302586 -0.82549,0.8254898 -2.007949,0.8254898 v 0 q -0.401589,0 -0.691626,0.290037 -0.267727,0.2677264 -0.267727,0.669316 0,0.4015896 0.267727,0.6916266 0.290037,0.2677264 0.691626,0.2677264 v 0 q 0.981664,0 1.851775,-0.3792791 0.8478,-0.3792791 1.494806,-1.0262846 0.647005,-0.6470055 1.026284,-1.5171163 0.379279,-0.8701104 0.379279,-1.8517744 0,-0.981664 -0.334658,-1.851774 -0.334658,-0.847801 -0.914732,-1.494806 -0.580074,-0.647006 -1.360942,-1.026285 -0.780869,-0.379279 -1.67329,-0.379279 z m -7.8086874,5.042181 q -0.290037,0.267726 -0.290037,0.669316 0,0.40159 0.290037,0.669316 L 9.821243,-8.9746826 H 7.8356054 q -0.9816635,0 -1.6956006,-0.8254898 -0.6916266,-0.8478006 -0.6916266,-2.0302586 0,-1.182458 0.8254898,-2.007948 0.8478003,-0.8478 2.0302586,-0.8478 v 0 q 0.4015896,0 0.669316,-0.267727 0.290037,-0.290037 0.290037,-0.669316 0,-0.401589 -0.290037,-0.669316 -0.2677264,-0.290037 -0.669316,-0.290037 v 0 q -0.9816635,0 -1.8517744,0.379279 -0.8478003,0.379279 -1.4948058,1.026285 -0.6470055,0.647005 -1.0262846,1.494806 -0.379279,0.87011 -0.379279,1.851774 0,0.981664 0.334658,1.8517744 0.334658,0.8701108 0.9147319,1.5171163 0.5800739,0.6470055 1.3609426,1.0262846 0.7808687,0.3792791 1.6732901,0.3792791 H 9.821243 l -1.2270794,1.2270794 q -0.290037,0.2677264 -0.290037,0.669316 0,0.4015896 0.290037,0.6693161 0.1338632,0.1338632 0.3123474,0.2231053 0.1784843,0.066932 0.3569686,0.066932 0.1784843,0 0.3569685,-0.066932 0.1784843,-0.089242 0.3123475,-0.2231053 L 13.45786,-8.0153296 9.9327956,-11.540394 q -0.2677264,-0.290037 -0.669316,-0.290037 -0.4015896,0 -0.669316,0.290037 z"
       style="fill:#65ccff;fill-opacity:1;stroke:#808080;stroke-width:0.76190478;stroke-miterlimit:4;stroke-dasharray:none"
       id="path885" />
  </g>
</svg>
